<?xml version="1.0" encoding="utf-8"?>
<!-- Generator: Adobe Illustrator 23.0.0, SVG Export Plug-In . SVG Version: 6.00 Build 0)  -->
<svg version="1.1" id="图层_1" xmlns="http://www.w3.org/2000/svg" xmlns:xlink="http://www.w3.org/1999/xlink" x="0px" y="0px"
	 viewBox="0 0 200 50" style="enable-background:new 0 0 200 50;" xml:space="preserve">
<style type="text/css">
	.st0{display:none;}
	.st1{display:inline;fill:#16A085;}
	.st2{display:inline;fill:#E74C3C;}
	.st3{display:inline;fill:#2980B9;}
	.st4{display:inline;opacity:0.5;fill:#A4B0BE;enable-background:new    ;}
	.st5{fill:none;}
	.st6{fill:#3EBBDD;}
	.st7{fill:#FFFFFF;}
	.st8{fill:#FF8000;}
</style>
<g class="st0">
	<path class="st1" d="M97.1,31.2c0,2,1.6,3.6,3.6,3.6s3.6-1.6,3.6-3.6s-1.6-3.6-3.6-3.6S97.1,29.3,97.1,31.2z"/>
	<path class="st2" d="M105.5,42.7c0,2,1.6,3.6,3.6,3.6s3.6-1.6,3.6-3.6s-1.6-3.6-3.6-3.6C107.1,39.1,105.5,40.7,105.5,42.7z"/>
	<path class="st3" d="M89.4,42.7c0,2,1.6,3.6,3.6,3.6s3.6-1.6,3.6-3.6S95,39.1,93,39.1S89.4,40.7,89.4,42.7z"/>
	<path class="st4" d="M105.1,32.5c2,1.2,3.4,3.2,3.7,5.6c0,0.3,0.2,0.4,0.5,0.5l0,0c0.3,0,0.6-0.3,0.6-0.6c-0.4-2.7-2-5.1-4.3-6.5
		c-0.3-0.2-0.8,0-0.8,0.4V32C104.8,32.2,104.9,32.4,105.1,32.5z M106.3,45.8c-0.2-0.2-0.5-0.2-0.7,0c-1.3,0.9-2.9,1.4-4.5,1.4
		s-3.2-0.5-4.5-1.4c-0.2-0.2-0.5-0.1-0.7,0c-0.3,0.2-0.2,0.7,0,0.9c1.5,1,3.3,1.6,5.2,1.6s3.7-0.6,5.2-1.6
		C106.5,46.5,106.5,46,106.3,45.8z M93.2,38.1c0.3-2.2,1.5-4.1,3.3-5.3c0.2-0.1,0.3-0.4,0.2-0.6l0,0c-0.1-0.4-0.6-0.6-0.9-0.3
		c-2,1.4-3.4,3.6-3.7,6.1c-0.1,0.4,0.2,0.7,0.6,0.6l0,0C93,38.6,93.2,38.4,93.2,38.1z"/>
</g>
<g id="图层_3">
	<path class="st5" d="M100,0.1c0.3,2,0.5,4.1,0.7,6.1"/>
</g>
<path class="st6" d="M90.1,26.9c0,5.3,4.3,9.5,9.5,9.5s9.5-4.3,9.5-9.5c0,0,0,0,0,0c0-5.3-4.3-9.5-9.5-9.5S90.1,21.6,90.1,26.9z"/>
<path class="st7" d="M90.2,26.3c0.1-2.6,1.4-5.1,3.4-6.7H98c0.6,0,1.1,0.5,1.1,1.1l0,0v0c0,0.6-0.5,1.1-1.1,1.1l0,0h-1.1
	c-0.6,0-1.1,0.5-1.1,1.1l0,0v0c0,0.6,0.5,1.1,1.1,1.1l0,0h2.8c0.6,0,1.1,0.5,1.1,1.1l0,0v0c0,0.6-0.5,1.1-1.1,1.1l0,0
	C99.7,26.3,90.2,26.3,90.2,26.3z"/>
<path d="M95.6,40.9c-4.7-1.4-8.5-5.2-9.9-9.9l1.1-0.3c1.3,4.4,4.8,7.9,9.2,9.2C95.9,39.8,95.6,40.9,95.6,40.9z"/>
<path d="M103.2,41.1l-0.3-1.1c4-1,7.4-3.9,9.1-7.7l1,0.5C111.2,36.9,107.5,40,103.2,41.1L103.2,41.1z"/>
<path d="M112.2,22c-1.5-3.9-4.8-6.9-8.8-8l0.3-1.1c4.3,1.3,7.9,4.5,9.5,8.7L112.2,22L112.2,22z"/>
<path d="M86.7,23.1l-1.1-0.3c1.4-4.7,5.2-8.5,9.9-9.9l0.3,1.1C91.5,15.2,88,18.7,86.7,23.1z"/>
<rect x="93.5" y="25.8" width="1.1" height="1.1"/>
<path class="st7" d="M109.2,26.3h-4.5c-0.6,0-1.1,0.5-1.1,1.1l0,0v0c0,0.6,0.5,1.1,1.1,1.1l0,0h0c0.6,0,1.1,0.5,1.1,1.1l0,0v0
	c0,0.6-0.5,1.1-1.1,1.1l0,0h-4.5c-0.6,0-1.1,0.5-1.1,1.1l0,0v0c0,0.6,0.5,1.1,1.1,1.1l0,0h6.7c1.5-1.7,2.3-3.9,2.3-6.2
	C109.2,26.7,109.2,26.5,109.2,26.3L109.2,26.3z"/>
<path d="M107.7,33c0.1-0.1,0.2-0.2,0.3-0.4c0.1-0.1,0.2-0.3,0.3-0.4c0.1-0.1,0.2-0.2,0.2-0.4c0.1-0.2,0.2-0.3,0.2-0.5
	c0.1-0.1,0.1-0.2,0.2-0.4c0.2-0.4,0.4-0.9,0.5-1.4c0-0.1,0.1-0.3,0.1-0.4c0-0.2,0.1-0.3,0.1-0.5c0-0.2,0.1-0.3,0.1-0.5
	c0-0.1,0-0.3,0.1-0.4c0-0.3,0-0.6,0-1c0-0.1,0-0.3,0-0.4l0-0.4c0-0.1,0-0.2,0-0.2l0-0.1h0c-0.6-5-4.8-9-10-9c-2.3,0-4.5,0.8-6.3,2.2
	h0l-0.2,0.1c-0.1,0.1-0.2,0.2-0.2,0.2c-0.2,0.1-0.3,0.3-0.4,0.4c-0.1,0.1-0.2,0.2-0.2,0.3c-0.2,0.2-0.3,0.3-0.5,0.5
	c0,0.1-0.1,0.1-0.1,0.2c-0.2,0.2-0.3,0.4-0.5,0.7c0,0,0,0.1-0.1,0.1c-0.2,0.3-0.3,0.5-0.5,0.8l0,0c-0.6,1.2-1,2.6-1.1,3.9
	c0,0,0,0,0,0l0,0.6h0c0,5.6,4.5,10.1,10.1,10.1c3,0,5.7-1.3,7.5-3.4h0l0.2-0.2c0,0,0,0,0-0.1C107.5,33.3,107.6,33.1,107.7,33
	L107.7,33z M108.6,27.7c0,0.1,0,0.2,0,0.3c0,0.2,0,0.3-0.1,0.5c-0.1,0.4-0.2,0.8-0.3,1.2c0,0.1-0.1,0.2-0.1,0.3
	c-0.1,0.1-0.1,0.3-0.2,0.4c0,0.1-0.1,0.2-0.1,0.3c-0.1,0.1-0.1,0.3-0.2,0.4c-0.1,0.1-0.1,0.2-0.2,0.3c-0.1,0.2-0.3,0.4-0.4,0.6
	c-0.1,0.1-0.2,0.2-0.2,0.3h-6.4c-0.3,0-0.6-0.2-0.6-0.6c0-0.3,0.2-0.6,0.6-0.6l0,0h4.5c0.9,0,1.7-0.8,1.7-1.7c0-0.9-0.8-1.7-1.7-1.7
	c-0.3,0-0.6-0.2-0.6-0.6c0-0.3,0.2-0.6,0.6-0.6l0,0h3.9C108.7,27.2,108.6,27.5,108.6,27.7L108.6,27.7z M99.7,35.9c-5,0-9-4-9-9h1.7
	v-1.1h-1.6c0.2-1.6,0.8-3,1.8-4.3c0-0.1,0.1-0.1,0.1-0.2c0.1-0.1,0.2-0.3,0.3-0.4c0.1-0.1,0.2-0.2,0.3-0.3c0.1-0.1,0.2-0.2,0.3-0.3
	c0.1-0.1,0.1-0.1,0.2-0.2H98c0.3,0,0.6,0.2,0.6,0.6c0,0.3-0.2,0.6-0.6,0.6h-1.1c-0.9,0-1.7,0.8-1.7,1.7c0,0.9,0.7,1.7,1.7,1.7h2.8
	c0.3,0,0.6,0.2,0.6,0.6c0,0.3-0.2,0.6-0.6,0.6h-3.9v1.1h3.9c0.9,0,1.7-0.8,1.7-1.7c0-0.9-0.7-1.7-1.7-1.7h-2.8
	c-0.3,0-0.6-0.2-0.6-0.6c0-0.3,0.2-0.6,0.6-0.6H98c0.9,0,1.7-0.8,1.7-1.7c0-0.9-0.7-1.7-1.7-1.7h-2.7c1.3-0.7,2.8-1.1,4.3-1.1
	c4.6,0,8.4,3.4,8.9,7.9h-3.9c-0.9,0-1.7,0.8-1.7,1.7c0,0.9,0.8,1.7,1.7,1.7c0.3,0,0.6,0.2,0.6,0.6c0,0.3-0.2,0.6-0.6,0.6l0,0h-4.5
	c-0.9,0-1.7,0.8-1.7,1.7c0,0.9,0.7,1.7,1.7,1.7h5.4C104,35,101.9,35.9,99.7,35.9L99.7,35.9z"/>
<path class="st8" d="M97.4,12.9c0,1.2,1,2.2,2.2,2.2s2.2-1,2.2-2.2c0,0,0,0,0,0c0-1.2-1-2.2-2.2-2.2C98.4,10.6,97.4,11.6,97.4,12.9
	C97.4,12.8,97.4,12.8,97.4,12.9z"/>
<path d="M99.7,15.7c-1.5,0-2.8-1.3-2.8-2.8s1.3-2.8,2.8-2.8s2.8,1.3,2.8,2.8S101.2,15.7,99.7,15.7z M99.7,11.2
	c-0.9,0-1.7,0.8-1.7,1.7c0,0.9,0.8,1.7,1.7,1.7c0.9,0,1.7-0.8,1.7-1.7C101.4,11.9,100.6,11.2,99.7,11.2z"/>
<path class="st8" d="M99.1,38.8c-1,0.3-1.7,1.1-1.7,2.2c0,1.2,1,2.2,2.2,2.2c1,0,1.9-0.7,2.2-1.7C100.4,41.4,99.2,40.2,99.1,38.8
	L99.1,38.8z"/>
<path d="M99.7,43.7c-1.5,0-2.8-1.3-2.8-2.8c0-1.3,0.9-2.4,2.1-2.7c0.2,0,0.3,0,0.5,0.1c0.1,0.1,0.2,0.3,0.2,0.4c0,1.2,1,2.1,2.2,2.2
	c0.3,0,0.6,0.3,0.5,0.6c0,0,0,0.1,0,0.1C102.1,42.9,101,43.7,99.7,43.7z M98.7,39.6c-0.4,0.3-0.7,0.8-0.7,1.4c0,0.9,0.8,1.7,1.7,1.7
	c0.5,0,1-0.3,1.4-0.7C99.9,41.6,99,40.7,98.7,39.6z M99.1,12.3h1.1v1.1h-1.1V12.3z"/>
<path class="st6" d="M83.4,24.1H89v1.1h-5.6V24.1z M84.2,26.3h3.9v1.1h-3.9V26.3z M85.1,28.6h2.2v1.1h-2.2V28.6z M114.8,26.9h-2.3
	c-0.6,0-1.1-0.5-1.1-1.1l0,0v0c0-0.6,0.5-1.1,1.1-1.1l0,0h0v0c0-0.6,0.5-1.1,1.1-1.1l0,0h0c0.6,0,1.1,0.5,1.1,1.1l0,0v0h0
	c0.6,0,1.1,0.5,1.1,1.1l0,0v0C116,26.4,115.5,26.9,114.8,26.9L114.8,26.9z"/>
<path d="M114.8,27.5h-2.3c-0.9,0-1.7-0.7-1.7-1.7c0-0.8,0.5-1.4,1.2-1.6c0.2-0.7,0.9-1.2,1.6-1.2c0.8,0,1.4,0.5,1.6,1.2
	c0.7,0.2,1.2,0.9,1.2,1.6C116.5,26.7,115.8,27.5,114.8,27.5L114.8,27.5z M113.7,24.1c-0.3,0-0.6,0.2-0.6,0.6c0,0.3-0.3,0.6-0.6,0.6
	c-0.3,0-0.6,0.2-0.6,0.6c0,0.3,0.2,0.6,0.6,0.6h2.3c0.3,0,0.6-0.2,0.6-0.6c0,0,0,0,0,0c0-0.3-0.2-0.6-0.6-0.6
	c-0.3,0-0.6-0.3-0.6-0.6C114.3,24.3,114,24.1,113.7,24.1L113.7,24.1z M113.7,31.9c-0.3,0-0.6-0.3-0.6-0.6c0-0.1,0-0.2,0.1-0.3
	l0.2-0.3h-0.8c-0.3,0-0.6-0.3-0.6-0.6c0-0.1,0-0.2,0.1-0.3l0.6-1.1c0.1-0.3,0.5-0.4,0.8-0.3c0.3,0.1,0.4,0.5,0.3,0.8l-0.2,0.3h0.8
	c0.3,0,0.6,0.3,0.6,0.6c0,0.1,0,0.2-0.1,0.3l-0.6,1.1C114.1,31.8,113.9,31.9,113.7,31.9z"/>
</svg>
